<svg width="24" height="28" viewBox="0 0 24 28" fill="none" xmlns="http://www.w3.org/2000/svg">
<g clip-path="url(#clip0_1555_1223)">
<path d="M11.9537 27.0638C18.5555 27.0638 23.9074 21.1173 23.9074 13.7819C23.9074 6.44651 18.5555 0.5 11.9537 0.5C5.35185 0.5 0 6.44651 0 13.7819C0 21.1173 5.35185 27.0638 11.9537 27.0638Z" fill="#E9FFF3"/>
<path d="M12.7644 20.9368C11.794 20.9368 10.8963 20.7791 10.0714 20.4637C9.25861 20.1362 8.54896 19.6813 7.94242 19.099C7.34801 18.5167 6.88098 17.8313 6.54132 17.0428C6.21379 16.2543 6.05002 15.3931 6.05002 14.459C6.05002 13.5249 6.21379 12.6636 6.54132 11.8751C6.88098 11.0866 7.35408 10.4012 7.96062 9.81897C8.56716 9.23669 9.27681 8.78785 10.0896 8.47245C10.9145 8.14492 11.8121 7.98116 12.7826 7.98116C13.7531 7.98116 14.6386 8.13279 15.4392 8.43606C16.252 8.73933 16.9435 9.2003 17.5136 9.81897L16.6766 10.6742C16.1428 10.1404 15.5545 9.75831 14.9116 9.52783C14.2686 9.29734 13.5772 9.1821 12.8372 9.1821C12.0487 9.1821 11.3209 9.31554 10.6537 9.58242C9.99859 9.83716 9.42238 10.2072 8.92501 10.6924C8.43978 11.1655 8.05766 11.7235 7.77866 12.3664C7.51178 12.9972 7.37834 13.6947 7.37834 14.459C7.37834 15.2111 7.51178 15.9086 7.77866 16.5515C8.05766 17.1945 8.43978 17.7586 8.92501 18.2438C9.42238 18.7169 9.99859 19.0869 10.6537 19.3537C11.3209 19.6085 12.0426 19.7359 12.819 19.7359C13.5468 19.7359 14.2322 19.6267 14.8752 19.4083C15.5302 19.19 16.1307 18.82 16.6766 18.2984L17.4408 19.3174C16.8343 19.8511 16.1246 20.2575 15.3119 20.5365C14.4991 20.8034 13.65 20.9368 12.7644 20.9368ZM16.1489 19.1536V14.459H17.4408V19.3174L16.1489 19.1536Z" fill="black"/>
</g>
<defs>
<clipPath id="clip0_1555_1223">
<rect width="24" height="27" fill="white" transform="translate(0 0.5)"/>
</clipPath>
</defs>
</svg>
